<?xml version="1.0" standalone="no"?>
<!DOCTYPE svg PUBLIC "-//W3C//DTD SVG 20010904//EN"
 "http://www.w3.org/TR/2001/REC-SVG-20010904/DTD/svg10.dtd">
<svg version="1.0" xmlns="http://www.w3.org/2000/svg"
 width="400.000000pt" height="400.000000pt" viewBox="0 0 400.000000 400.000000"
 preserveAspectRatio="xMidYMid meet">

<g transform="translate(0.000000,400.000000) scale(0.100000,-0.100000)"
fill="#000000" stroke="none">
<path d="M1895 3980 c-311 -81 -465 -424 -319 -711 24 -47 80 -119 93 -119 3
0 14 22 24 49 35 101 147 191 263 212 168 31 331 -62 393 -226 l18 -47 36 44
c50 61 93 157 108 240 35 198 -79 426 -261 518 -118 60 -232 73 -355 40z"/>
<path d="M845 3550 c-179 -39 -316 -159 -377 -329 -31 -84 -30 -233 0 -324 41
-117 143 -232 254 -285 99 -48 236 -65 338 -41 175 40 333 202 371 379 16 73
6 200 -22 279 -44 128 -173 257 -300 300 -72 24 -202 35 -264 21z"/>
<path d="M2980 3553 c-151 -25 -301 -135 -365 -268 -51 -105 -68 -240 -44
-345 40 -175 202 -333 379 -371 72 -15 200 -6 278 21 122 43 249 163 293 280
74 191 33 394 -106 535 -33 34 -81 73 -107 88 -86 50 -231 76 -328 60z"/>
<path d="M420 2493 c-51 -8 -147 -47 -198 -80 -154 -102 -244 -306 -214 -485
40 -234 223 -405 455 -424 126 -11 262 32 355 112 l43 37 -54 22 c-97 39 -156
96 -199 192 -31 68 -31 198 0 266 43 96 102 153 199 192 l54 22 -43 37 c-102
88 -260 131 -398 109z"/>
<path d="M3383 2486 c-72 -18 -154 -60 -204 -105 l-44 -38 35 -8 c84 -18 178
-104 222 -202 31 -68 31 -198 0 -266 -43 -96 -102 -153 -199 -192 l-54 -22 43
-37 c162 -140 409 -151 596 -29 154 102 244 306 214 486 -41 241 -231 411
-472 423 -51 2 -106 -2 -137 -10z"/>
<path d="M821 1424 c-79 -21 -130 -46 -189 -93 -71 -57 -135 -146 -164 -228
-31 -91 -31 -240 0 -325 52 -145 165 -257 311 -311 81 -29 243 -29 325 2 204
74 337 264 336 481 -1 84 -14 140 -53 219 -59 121 -197 230 -327 260 -63 15
-175 12 -239 -5z"/>
<path d="M2936 1429 c-169 -42 -326 -201 -365 -369 -24 -105 -7 -240 44 -345
52 -107 166 -206 282 -247 91 -30 240 -31 324 0 145 52 259 165 311 310 31 85
31 234 -1 325 -45 133 -172 261 -302 307 -73 25 -229 36 -293 19z"/>
<path d="M2290 735 c-28 -45 -94 -99 -156 -127 -38 -17 -68 -22 -134 -22 -109
0 -177 29 -255 109 l-54 55 -25 -33 c-132 -173 -115 -429 38 -583 218 -218
575 -156 713 124 32 64 37 85 41 162 6 115 -19 203 -83 289 -25 33 -49 61 -54
61 -5 0 -19 -16 -31 -35z"/>
</g>
</svg>
